<svg width="72" height="73" viewBox="0 0 72 73" fill="none" xmlns="http://www.w3.org/2000/svg">
<path d="M34.8271 72.2383C15.5095 71.7488 1.42625e-06 55.9356 3.12536e-06 36.5L0.011722 35.5771C0.50121 16.2595 16.3144 0.749995 35.75 0.749997L36.6729 0.761716C55.6839 1.24344 71.0066 16.5662 71.4883 35.5771L71.5 36.5C71.5 56.2442 55.4942 72.25 35.75 72.25L34.8271 72.2383ZM35.75 69.25C53.8373 69.25 68.5 54.5873 68.5 36.5C68.5 18.4127 53.8373 3.75 35.75 3.75C17.6627 3.75 3 18.4127 3 36.5C3 54.5873 17.6627 69.25 35.75 69.25Z" fill="#1AC073"/>
<path d="M23.9594 39.706C22.5948 38.5108 22.5948 36.3875 23.9594 35.1924L37.5966 23.2483C39.5361 21.5497 42.5732 22.9269 42.5732 25.5051L42.5732 49.3933C42.5732 51.9714 39.5361 53.3487 37.5966 51.6501L23.9594 39.706Z" fill="#1AC073"/>
</svg>
